<svg data-v-fde0c5aa="" xmlns="http://www.w3.org/2000/svg" viewBox="0 0 300 300" class="iconLeft"><!----><defs data-v-fde0c5aa=""><linearGradient data-v-fde0c5aa="" gradientTransform="rotate(25)" id="23cd2d67-78ef-4a75-9368-b3cb6900cf41" x1="0%" y1="0%" x2="100%" y2="0%"><stop data-v-fde0c5aa="" offset="0%" stop-color="#182471" stop-opacity="1"></stop><stop data-v-fde0c5aa="" offset="100%" stop-color="#2664C8" stop-opacity="1"></stop></linearGradient></defs><rect data-v-fde0c5aa="" fill="url(#23cd2d67-78ef-4a75-9368-b3cb6900cf41)" x="0" y="0" width="300px" height="300px" class="logo-background-square"></rect><defs data-v-fde0c5aa=""><!----></defs><g data-v-fde0c5aa="" id="59b0fee0-13c1-4407-8fb0-75bf12e65d89" fill="#fff" transform="matrix(2.789720058441162,0,0,2.789720058441162,98.92155500114119,132.06209959949726)"><path d="M-0.15 10.50L-0.15 0L4.38 0Q7.15 0 7.15 2.04L7.15 2.04L7.15 4.38Q7.15 6.56 4.38 6.56L4.38 6.56L2.04 6.56L2.04 10.50L-0.15 10.50ZM2.04 5.10L3.79 5.10Q4.96 5.10 4.96 4.08L4.96 4.08L4.96 2.48Q4.96 1.46 3.79 1.46L3.79 1.46L2.04 1.46L2.04 5.10ZM8.30 4.67L8.30 4.67L8.30 8.75Q8.30 10.65 11.66 10.65L11.66 10.65Q15.01 10.65 15.01 8.75L15.01 8.75L15.01 8.17L12.82 8.17L12.82 8.46Q12.82 9.19 11.66 9.19L11.66 9.19Q10.49 9.19 10.49 8.46L10.49 8.46L10.49 7.44L15.01 7.44L15.01 4.67Q15.01 2.77 11.66 2.77L11.66 2.77Q8.30 2.77 8.30 4.67ZM12.82 5.98L10.49 5.98L10.49 4.96Q10.49 4.23 11.66 4.23L11.66 4.23Q12.82 4.23 12.82 4.96L12.82 4.96L12.82 5.98ZM16.18 2.92L16.18 10.50L18.36 10.50L18.36 5.10Q18.36 4.23 19.53 4.23L19.53 4.23Q20.70 4.23 20.70 5.10L20.70 5.10L20.70 10.50L22.88 10.50L22.88 4.67Q22.88 2.77 20.62 2.77Q18.36 2.77 18.36 3.94L18.36 3.94L18.36 2.92L16.18 2.92ZM28.57 2.92L30.76 2.92L30.76 11.67Q30.76 13.27 27.40 13.27L27.40 13.27Q24.05 13.27 24.05 11.67L24.05 11.67L24.05 11.23L26.24 11.23L26.24 11.38Q26.24 11.81 27.40 11.81L27.40 11.81Q28.57 11.81 28.57 11.38L28.57 11.38L28.57 9.48Q28.57 10.65 26.31 10.65Q24.05 10.65 24.05 8.75L24.05 8.75L24.05 4.67Q24.05 2.77 26.31 2.77Q28.57 2.77 28.57 3.94L28.57 3.94L28.57 2.92ZM28.57 8.46L28.57 8.46L28.57 4.96Q28.57 4.23 27.40 4.23L27.40 4.23Q26.24 4.23 26.24 4.96L26.24 4.96L26.24 8.46Q26.24 9.19 27.40 9.19L27.40 9.19Q28.57 9.19 28.57 8.46ZM38.63 10.50L38.63 2.92L36.45 2.92L36.45 8.31Q36.45 9.19 35.28 9.19L35.28 9.19Q34.11 9.19 34.11 8.31L34.11 8.31L34.11 2.92L31.93 2.92L31.93 8.75Q31.93 10.65 34.19 10.65Q36.45 10.65 36.45 9.48L36.45 9.48L36.45 10.50L38.63 10.50ZM41.99 2.92L39.80 2.92L39.80 10.50L41.99 10.50L41.99 2.92ZM42.10 0.60Q42.10-0.41 40.89-0.41Q39.68-0.41 39.68 0.60Q39.68 1.60 40.89 1.60Q42.10 1.60 42.10 0.60ZM43.15 2.92L43.15 10.50L45.34 10.50L45.34 5.10Q45.34 4.23 46.51 4.23L46.51 4.23Q47.68 4.23 47.68 5.10L47.68 5.10L47.68 10.50L49.86 10.50L49.86 4.67Q49.86 2.77 47.60 2.77Q45.34 2.77 45.34 3.94L45.34 3.94L45.34 2.92L43.15 2.92ZM53.36 5.10L53.36 5.10L53.36 4.96Q53.36 4.23 54.38 4.23L54.38 4.23Q55.40 4.23 55.40 4.96L55.40 4.96L55.40 5.54L57.59 5.54L57.59 4.67Q57.59 2.77 54.38 2.77L54.38 2.77Q51.18 2.77 51.18 4.67L51.18 4.67L51.18 5.40Q51.18 7.17 54.38 7.50L54.38 7.50Q55.55 7.66 55.55 8.31L55.55 8.31L55.55 8.46Q55.55 9.19 54.38 9.19L54.38 9.19Q53.22 9.19 53.22 8.46L53.22 8.46L53.22 7.88L51.03 7.88L51.03 8.75Q51.03 10.65 54.38 10.65L54.38 10.65Q57.74 10.65 57.74 8.75L57.74 8.75L57.74 7.73Q57.74 6.11 54.38 5.83L54.38 5.83Q53.36 5.68 53.36 5.10Z"></path></g><defs data-v-fde0c5aa=""><!----></defs><g data-v-fde0c5aa="" id="7d97e182-347a-435f-92ba-7f20a8026b7e" stroke="none" fill="#fff" transform="matrix(0.5835675597190857,0,0,0.5835675597190857,33.08822691801913,120.93804518838024)"><path d="M54.366.753c-11.01 0-20.201 7.741-22.456 18.074L18.194 23.27l13.263 2.241c.994 10.118 11.092 2.789 23.147 2.789 12.701 0 22.758 8.149 22.758-4.551S67.065.753 54.366.753zm-.24 20.241a2.994 2.994 0 11.002-5.99 2.994 2.994 0 01-.002 5.99z"></path><ellipse cx="69.337" cy="67.228" rx="20.481" ry="31.62"></ellipse><path d="M37.433 35.889l-6.54-4.654.212 2.816c-10.743.976-19.261 14.73-19.261 31.56 0 17.464 9.17 31.62 20.482 31.62.975 0 1.934-.112 2.875-.315-9.951-2.16-17.608-15.348-17.608-31.306 0-13.759 5.698-25.44 13.646-29.787l.521 6.923 5.572-5.078 6.493 5.501.696-12.254-7.088 4.974z"></path></g><!----></svg>