<svg data-v-423bf9ae="" xmlns="http://www.w3.org/2000/svg" viewBox="0 0 253.90351716195454 60" class="font"><!----><!----><!----><g data-v-423bf9ae="" id="f3550c5a-3c21-4426-9ce4-df0ca84a120e" fill="black" transform="matrix(4.385964870452881,0,0,4.385964870452881,0.6578845381736755,1.798244595527649)"><path d="M-0.15 10.50L-0.15 0L4.38 0Q7.15 0 7.15 2.04L7.15 2.04L7.15 4.38Q7.15 6.56 4.38 6.56L4.38 6.56L2.04 6.56L2.04 10.50L-0.15 10.50ZM2.04 5.10L3.79 5.10Q4.96 5.10 4.96 4.08L4.96 4.08L4.96 2.48Q4.96 1.46 3.79 1.46L3.79 1.46L2.04 1.46L2.04 5.10ZM8.30 4.67L8.30 4.67L8.30 8.75Q8.30 10.65 11.66 10.65L11.66 10.65Q15.01 10.65 15.01 8.75L15.01 8.75L15.01 8.17L12.82 8.17L12.82 8.46Q12.82 9.19 11.66 9.19L11.66 9.19Q10.49 9.19 10.49 8.46L10.49 8.46L10.49 7.44L15.01 7.44L15.01 4.67Q15.01 2.77 11.66 2.77L11.66 2.77Q8.30 2.77 8.30 4.67ZM12.82 5.98L10.49 5.98L10.49 4.96Q10.49 4.23 11.66 4.23L11.66 4.23Q12.82 4.23 12.82 4.96L12.82 4.96L12.82 5.98ZM16.18 2.92L16.18 10.50L18.36 10.50L18.36 5.10Q18.36 4.23 19.53 4.23L19.53 4.23Q20.70 4.23 20.70 5.10L20.70 5.10L20.70 10.50L22.88 10.50L22.88 4.67Q22.88 2.77 20.62 2.77Q18.36 2.77 18.36 3.94L18.36 3.94L18.36 2.92L16.18 2.92ZM28.57 2.92L30.76 2.92L30.76 11.67Q30.76 13.27 27.40 13.27L27.40 13.27Q24.05 13.27 24.05 11.67L24.05 11.67L24.05 11.23L26.24 11.23L26.24 11.38Q26.24 11.81 27.40 11.81L27.40 11.81Q28.57 11.81 28.57 11.38L28.57 11.38L28.57 9.48Q28.57 10.65 26.31 10.65Q24.05 10.65 24.05 8.75L24.05 8.75L24.05 4.67Q24.05 2.77 26.31 2.77Q28.57 2.77 28.57 3.94L28.57 3.94L28.57 2.92ZM28.57 8.46L28.57 8.46L28.57 4.96Q28.57 4.23 27.40 4.23L27.40 4.23Q26.24 4.23 26.24 4.96L26.24 4.96L26.24 8.46Q26.24 9.19 27.40 9.19L27.40 9.19Q28.57 9.19 28.57 8.46ZM38.63 10.50L38.63 2.92L36.45 2.92L36.45 8.31Q36.45 9.19 35.28 9.19L35.28 9.19Q34.11 9.19 34.11 8.31L34.11 8.31L34.11 2.92L31.93 2.92L31.93 8.75Q31.93 10.65 34.19 10.65Q36.45 10.65 36.45 9.48L36.45 9.48L36.45 10.50L38.63 10.50ZM41.99 2.92L39.80 2.92L39.80 10.50L41.99 10.50L41.99 2.92ZM42.10 0.60Q42.10-0.41 40.89-0.41Q39.68-0.41 39.68 0.60Q39.68 1.60 40.89 1.60Q42.10 1.60 42.10 0.60ZM43.15 2.92L43.15 10.50L45.34 10.50L45.34 5.10Q45.34 4.23 46.51 4.23L46.51 4.23Q47.68 4.23 47.68 5.10L47.68 5.10L47.68 10.50L49.86 10.50L49.86 4.67Q49.86 2.77 47.60 2.77Q45.34 2.77 45.34 3.94L45.34 3.94L45.34 2.92L43.15 2.92ZM53.36 5.10L53.36 5.10L53.36 4.96Q53.36 4.23 54.38 4.23L54.38 4.23Q55.40 4.23 55.40 4.96L55.40 4.96L55.40 5.54L57.59 5.54L57.59 4.67Q57.59 2.77 54.38 2.77L54.38 2.77Q51.18 2.77 51.18 4.67L51.18 4.67L51.18 5.40Q51.18 7.17 54.38 7.50L54.38 7.50Q55.55 7.66 55.55 8.31L55.55 8.31L55.55 8.46Q55.55 9.19 54.38 9.19L54.38 9.19Q53.22 9.19 53.22 8.46L53.22 8.46L53.22 7.88L51.03 7.88L51.03 8.75Q51.03 10.65 54.38 10.65L54.38 10.65Q57.74 10.65 57.74 8.75L57.74 8.75L57.74 7.73Q57.74 6.11 54.38 5.83L54.38 5.83Q53.36 5.68 53.36 5.10Z"></path></g><!----><!----></svg>